<svg width="33" height="33" viewBox="0 0 33 33" fill="none" xmlns="http://www.w3.org/2000/svg">
<g clip-path="url(#clip0_19_2)">
<path d="M16.5986 32.9993C25.6581 32.9993 33 25.6574 33 16.6006C33 7.54375 25.6581 0.199219 16.5986 0.199219C7.54181 0.199219 0.199951 7.54375 0.199951 16.6006C0.199951 25.6574 7.54181 32.9993 16.5986 32.9993Z" fill="white"/>
<path d="M20.2789 12.3292C20.2789 10.4643 21.5414 8.65561 22.2302 8.99633C23.0154 9.38993 21.6418 11.1464 20.2789 12.3292ZM11.694 13.0086C11.694 11.5092 13.1734 8.66029 14.0771 8.96152C15.1454 9.31763 13.1921 12.1913 11.694 13.0086ZM10.1939 23.7323C9.51383 23.763 9.05864 23.3279 9.05864 22.6017C9.05864 20.6504 11.7663 18.7861 13.8113 17.7854C13.4485 20.5098 12.5281 23.6272 10.1939 23.7323ZM22.6861 17.3737C21.1418 17.3737 19.9616 18.5097 19.9616 19.8719C19.9616 21.0078 20.6444 21.9162 21.5501 21.9162C21.8707 21.9162 22.188 21.7335 22.188 21.3278C22.188 20.7341 21.4048 20.5915 21.4638 19.7086C21.5032 19.1262 22.0521 18.7366 22.597 18.7366C23.6861 18.7366 24.1955 19.7922 24.1955 20.8813C24.1513 22.5635 22.913 23.7316 21.4617 23.7316C19.5526 23.7316 18.3263 21.9162 18.3263 19.9623C18.3263 17.0531 20.2354 15.9178 21.2355 15.6467C21.2449 15.6467 23.8474 16.1092 23.7665 14.9619C23.729 14.4572 22.9786 14.2631 22.4364 14.2423C21.8333 14.2189 21.2241 14.4358 21.2241 14.4358C20.9082 14.2751 20.6886 13.9612 20.5527 13.5997C22.4156 12.19 23.733 10.8284 23.733 9.28349C23.733 8.46617 23.1868 7.73921 22.1418 7.73921C20.2789 7.73921 18.8705 10.1015 18.8705 12.2368C18.8705 12.599 18.8705 12.9638 18.9643 13.2811C17.7821 14.1433 16.9032 14.6808 15.3147 15.6347C15.3147 15.4358 15.3563 14.9224 15.4901 14.2584C16.0343 13.6673 16.782 12.7817 16.782 12.0996C16.782 11.7823 16.602 11.5085 16.2352 11.5085C15.3281 11.5085 14.648 12.8728 14.466 13.8266C14.057 14.3287 13.239 14.9646 12.5562 14.9646C12.012 14.9646 11.8292 14.4646 11.7831 14.2818C13.5101 13.6907 15.6454 11.3285 15.6454 9.19313C15.6454 8.73995 15.4634 7.73921 14.1011 7.73921C12.0568 7.73921 10.3325 10.7843 10.3325 13.1439C9.60352 13.1439 9.33242 12.3727 9.33242 11.7817C9.33242 11.1899 9.55934 10.6015 9.55934 10.4188C9.55934 10.2367 9.46831 10.0104 9.19453 10.0104C8.51443 10.0104 8.10543 10.9188 8.10543 11.9637C8.15229 13.4176 9.1055 14.3287 10.3767 14.4177C10.5587 15.2819 11.3299 16.0999 12.2831 16.0999C12.8748 16.0999 13.6011 15.9178 14.1011 15.4646C14.057 15.7819 14.0128 16.0557 13.9659 16.3268C11.9658 17.3737 10.5119 18.1 9.19453 19.2808C8.15229 20.236 7.56122 21.5072 7.56122 22.5053C7.56122 23.8701 8.42339 25.1413 10.1946 25.1413C12.2831 25.1413 13.8749 23.4611 14.648 21.1431C15.0102 20.054 15.1554 18.4675 15.2485 17.0116C17.3356 15.8288 18.3263 15.1473 19.4174 14.3735C19.5533 14.6004 19.6905 14.7819 19.8706 14.9177C18.9174 15.4178 16.6462 16.8268 16.6462 20.1423C16.6462 22.5046 18.2346 25.1406 21.3714 25.1406C23.9606 25.1406 25.7318 23.0046 25.7318 20.9596C25.7311 19.0987 24.6862 17.3737 22.6861 17.3737ZM30.4972 21.2763C30.4905 21.2903 30.465 21.3091 30.4135 21.2923C30.3733 21.2783 30.3646 21.2595 30.3646 21.2334C30.3666 21.208 30.9135 19.5907 30.9088 17.7379C30.9041 15.7351 30.0915 14.5081 29.0493 14.5081C28.4113 14.5081 27.9575 14.9639 27.9575 15.6467C27.9575 16.873 29.4556 16.9647 29.4556 19.6443C29.4556 20.7334 29.2287 21.7783 28.8672 22.9136C27.1844 28.5913 21.8239 31.2274 16.602 31.2274C14.1929 31.2274 12.4819 30.732 11.9732 30.5038C11.9524 30.4917 11.933 30.4522 11.9497 30.4121C11.9611 30.382 11.9966 30.3585 12.0173 30.3679C12.2235 30.4476 13.6928 30.9101 15.5109 30.9101C17.509 30.9101 18.6911 30.0928 18.6911 29.092C18.6911 28.4568 18.1911 27.9568 17.5559 27.9568C16.3289 27.9568 16.2358 29.501 13.6018 29.501C12.4665 29.501 11.4664 29.2741 10.2863 28.9093C4.65139 27.1836 1.96915 21.87 1.97115 16.6006C1.97316 14.0328 2.69342 11.9878 2.7048 11.9691C2.71418 11.9557 2.74631 11.941 2.7858 11.9557C2.82596 11.9691 2.83467 12.0019 2.83266 12.0139C2.76773 12.2268 2.29045 13.6921 2.29045 15.5101C2.29045 17.5103 3.10778 18.6904 4.15269 18.6904C4.74175 18.6904 5.24179 18.2372 5.24179 17.6013C5.24179 16.373 3.74169 16.2371 3.74169 13.6017C3.74169 12.4658 3.97062 11.4657 4.33276 10.2856C6.05978 4.65199 11.3761 2.01192 16.6006 1.97109C19.0285 1.95235 21.1525 2.6793 21.2342 2.74423C21.2482 2.75628 21.2623 2.78708 21.2482 2.82389C21.2288 2.86807 21.2007 2.87276 21.1873 2.87008C21.1619 2.86807 19.7802 2.29039 17.6891 2.29039C15.7358 2.28838 14.5088 3.10637 14.5088 4.15263C14.5088 4.74169 14.9647 5.24172 15.6441 5.24172C16.8711 5.24172 16.9621 3.74363 19.5982 3.74363C20.7308 3.74363 21.7315 3.96788 22.9116 4.33269C28.5921 6.05905 31.1766 11.4195 31.2254 16.5999C31.2522 19.2527 30.5045 21.2595 30.4972 21.2763ZM16.6013 0.972363C7.96955 0.972363 0.973765 7.96614 0.973765 16.5999C0.973765 25.2317 7.96955 32.2255 16.6013 32.2255C25.2311 32.2255 32.2269 25.2317 32.2269 16.5999C32.2269 8.01299 25.2311 0.972363 16.6013 0.972363ZM16.6013 32.9993C7.56055 32.9993 0.199951 25.6855 0.199951 16.6006C0.199951 7.55714 7.56055 0.199219 16.6013 0.199219C25.6394 0.199219 33 7.55714 33 16.6006C33 25.6855 25.6394 32.9993 16.6013 32.9993Z" fill="black"/>
</g>
<defs>
<clipPath id="clip0_19_2">
<rect width="33" height="33" fill="white"/>
</clipPath>
</defs>
</svg>
