<svg width="95" height="95" viewBox="0 0 95 95" fill="none" xmlns="http://www.w3.org/2000/svg">
<path d="M47.4961 95C73.7355 95 95 73.7355 95 47.5039C95 21.2722 73.7355 0 47.4961 0C21.2645 0 0 21.2722 0 47.5039C0 73.7355 21.2645 95 47.4961 95Z" fill="#3B73B9"/>
<path d="M58.1555 35.1326C58.1555 29.7311 61.812 24.4926 63.807 25.4794C66.0812 26.6194 62.1029 31.7067 58.1555 35.1326ZM33.2907 37.1004C33.2907 32.7576 37.5754 24.5061 40.1928 25.3786C43.287 26.41 37.6297 34.7332 33.2907 37.1004ZM28.9459 68.1596C26.9761 68.2488 25.6578 66.9886 25.6578 64.885C25.6578 59.2335 33.5001 53.834 39.4231 50.9355C38.3722 58.8263 35.7064 67.8552 28.9459 68.1596ZM65.1273 49.7432C60.6546 49.7432 57.2365 53.0333 57.2365 56.9787C57.2365 60.2688 59.2141 62.8997 61.8372 62.8997C62.7659 62.8997 63.6849 62.3704 63.6849 61.1955C63.6849 59.4758 61.4165 59.0629 61.5871 56.5056C61.7015 54.8189 63.2913 53.6905 64.8695 53.6905C68.0239 53.6905 69.4993 56.748 69.4993 59.9023C69.3713 64.7745 65.7846 68.1577 61.5813 68.1577C56.0519 68.1577 52.5001 62.8997 52.5001 57.2404C52.5001 48.8145 58.0295 45.5263 60.926 44.7411C60.9532 44.7411 68.4911 46.0808 68.2565 42.7578C68.148 41.2959 65.9746 40.7337 64.4042 40.6736C62.6573 40.6057 60.8931 41.2339 60.8931 41.2339C59.978 40.7686 59.342 39.8593 58.9485 38.8123C64.3441 34.7293 68.1596 30.7858 68.1596 26.3111C68.1596 23.9439 66.5776 21.8384 63.5511 21.8384C58.1555 21.8384 54.0763 28.6803 54.0763 34.865C54.0763 35.9139 54.0763 36.9705 54.3478 37.8895C50.9239 40.3866 48.3783 41.9435 43.7776 44.7062C43.7776 44.1304 43.8978 42.6434 44.2855 40.7201C45.8617 39.0082 48.0273 36.4432 48.0273 34.4676C48.0273 33.5486 47.5058 32.7556 46.4434 32.7556C43.8163 32.7556 41.8465 36.7068 41.3192 39.4696C40.1346 40.9237 37.7654 42.7655 35.7879 42.7655C34.2116 42.7655 33.6823 41.3172 33.5486 40.788C38.5506 39.076 44.7353 32.2341 44.7353 26.0494C44.7353 24.7368 44.208 21.8384 40.2626 21.8384C34.3415 21.8384 29.3472 30.6579 29.3472 37.492C27.2359 37.492 26.4507 35.2586 26.4507 33.5466C26.4507 31.8328 27.108 30.1286 27.108 29.5993C27.108 29.0719 26.8443 28.4166 26.0513 28.4166C24.0815 28.4166 22.8969 31.0476 22.8969 34.074C23.0327 38.285 25.7935 40.9237 29.4752 41.1815C30.0026 43.6845 32.236 46.0537 34.9968 46.0537C36.7107 46.0537 38.8143 45.5263 40.2626 44.2138C40.1346 45.1328 40.0066 45.9257 39.8709 46.7109C34.0779 49.7432 29.8668 51.8467 26.0513 55.2667C23.0327 58.0334 21.3207 61.7151 21.3207 64.6058C21.3207 68.559 23.8179 72.2407 28.9479 72.2407C34.9968 72.2407 39.6072 67.3744 41.8465 60.6604C42.8954 57.506 43.3161 52.9111 43.5856 48.6943C49.6307 45.2685 52.5001 43.2948 55.6603 41.0536C56.0539 41.7108 56.4513 42.2362 56.9729 42.6298C54.212 44.0781 47.6338 48.1592 47.6338 57.7619C47.6338 64.6039 52.2345 72.2388 61.3196 72.2388C68.8188 72.2388 73.9488 66.0521 73.9488 60.1292C73.9468 54.7394 70.9204 49.7432 65.1273 49.7432ZM87.7509 61.0462C87.7315 61.0869 87.6579 61.1412 87.5086 61.0928C87.3922 61.052 87.367 60.9978 87.367 60.9221C87.3729 60.8485 88.9568 56.1644 88.9433 50.7979C88.9297 44.997 86.576 41.4433 83.5573 41.4433C81.7097 41.4433 80.3952 42.7636 80.3952 44.7411C80.3952 48.293 84.7342 48.5586 84.7342 56.3195C84.7342 59.4739 84.0769 62.5003 83.03 65.7885C78.1559 82.2332 62.6302 89.8681 47.5058 89.8681C40.5282 89.8681 35.5727 88.4334 34.0992 87.7723C34.0391 87.7374 33.9829 87.623 34.0313 87.5066C34.0643 87.4194 34.167 87.3515 34.2271 87.3787C34.8243 87.6094 39.0799 88.9491 44.3456 88.9491C50.1329 88.9491 53.5567 86.5818 53.5567 83.6834C53.5567 81.8435 52.1085 80.3952 50.2686 80.3952C46.7148 80.3952 46.4453 84.868 38.8162 84.868C35.5281 84.868 32.6315 84.2107 29.2135 83.1541C12.8929 78.1559 5.12418 62.7659 5.13 47.5039C5.13582 40.0667 7.22194 34.1438 7.2549 34.0895C7.28204 34.0507 7.3751 34.0081 7.48949 34.0507C7.60582 34.0895 7.63102 34.1845 7.6252 34.2194C7.43714 34.8359 6.0548 39.0799 6.0548 44.3456C6.0548 50.1387 8.42204 53.5567 11.4485 53.5567C13.1546 53.5567 14.6029 52.2442 14.6029 50.4023C14.6029 46.8447 10.2581 46.4511 10.2581 38.8182C10.2581 35.5281 10.9211 32.6315 11.97 29.2135C16.972 12.8967 32.3698 5.2502 47.5019 5.13194C54.5339 5.07765 60.6856 7.18316 60.9221 7.37122C60.9629 7.40612 61.0036 7.49531 60.9629 7.60194C60.9066 7.7299 60.8252 7.74347 60.7864 7.73571C60.7128 7.7299 56.7111 6.05673 50.6544 6.05673C44.997 6.05092 41.4433 8.4201 41.4433 11.4504C41.4433 13.1565 42.7636 14.6048 44.7314 14.6048C48.2852 14.6048 48.5489 10.2658 56.1838 10.2658C59.4642 10.2658 62.3627 10.9153 65.7807 11.9719C82.2332 16.972 89.7188 32.4978 89.8603 47.5019C89.9379 55.1853 87.7722 60.9978 87.7509 61.0462ZM47.5039 2.23929C22.5034 2.23929 2.24122 22.4956 2.24122 47.5019C2.24122 72.5025 22.5034 92.7588 47.5039 92.7588C72.4986 92.7588 92.7607 72.5025 92.7607 47.5019C92.7607 22.6313 72.4986 2.23929 47.5039 2.23929ZM47.5039 95C21.3188 95 0 73.8169 0 47.5039C0 21.311 21.3188 0 47.5039 0C73.6812 0 95 21.311 95 47.5039C95 73.8169 73.6812 95 47.5039 95Z" fill="white"/>
</svg>
